<svg width="100" height="900" viewBox="0 0 100 900" fill="none" xmlns="http://www.w3.org/2000/svg">
<g clip-path="url(#clip0)">
<line x1="100.353553" y1="174.303" x2="0" y2="-0.352675" stroke="#7C3AED" stroke-opacity="0.08"/>
<line x1="100.353553" y1="154.302" x2="0" y2="-20.3537" stroke="#7C3AED" stroke-opacity="0.08"/>
<line x1="100.353553" y1="144.302" x2="0" y2="-30.3537" stroke="#7C3AED" stroke-opacity="0.08"/>
<line x1="100.353553" y1="134.302" x2="0" y2="-40.3537" stroke="#7C3AED" stroke-opacity="0.08"/>
<line x1="100.353553" y1="124.302" x2="0" y2="-50.3537" stroke="#7C3AED" stroke-opacity="0.08"/>
<line x1="100.353553" y1="114.302" x2="0" y2="-60.3537" stroke="#7C3AED" stroke-opacity="0.08"/>
<line x1="100.353553" y1="104.302" x2="0" y2="-70.3537" stroke="#7C3AED" stroke-opacity="0.08"/>
<line x1="100.353553" y1="94.3017" x2="0" y2="-80.3537" stroke="#7C3AED" stroke-opacity="0.08"/>
<line x1="100.353553" y1="84.3017" x2="0" y2="-90.3537" stroke="#7C3AED" stroke-opacity="0.08"/>
<line x1="100.353553" y1="74.3017" x2="0" y2="-100.354" stroke="#7C3AED" stroke-opacity="0.08"/>
<line x1="100.353553" y1="64.3017" x2="0" y2="-110.354" stroke="#7C3AED" stroke-opacity="0.08"/>
<line x1="100.353553" y1="54.3017" x2="0" y2="-120.354" stroke="#7C3AED" stroke-opacity="0.08"/>
<line x1="100.353553" y1="44.3017" x2="0" y2="-130.354" stroke="#7C3AED" stroke-opacity="0.08"/>
<line x1="100.353553" y1="34.3017" x2="0" y2="-140.354" stroke="#7C3AED" stroke-opacity="0.08"/>
<line x1="100.353553" y1="24.3017" x2="0" y2="-150.354" stroke="#7C3AED" stroke-opacity="0.08"/>
<line x1="100.353553" y1="14.3017" x2="0" y2="-160.354" stroke="#7C3AED" stroke-opacity="0.08"/>
<line x1="100.353553" y1="4.30172" x2="0" y2="-170.354" stroke="#7C3AED" stroke-opacity="0.08"/>
<line x1="100.353553" y1="164.302" x2="0" y2="-10.3537" stroke="#7C3AED" stroke-opacity="0.08"/>
<line x1="100.353553" y1="184.303" x2="0" y2="9.64732" stroke="#7C3AED" stroke-opacity="0.08"/>
<line x1="100.353553" y1="194.303" x2="0" y2="19.6473" stroke="#7C3AED" stroke-opacity="0.08"/>
<line x1="100.353553" y1="204.303" x2="0" y2="29.6473" stroke="#7C3AED" stroke-opacity="0.08"/>
<line x1="100.353553" y1="214.303" x2="0" y2="39.6473" stroke="#7C3AED" stroke-opacity="0.08"/>
<line x1="100.353553" y1="224.303" x2="0" y2="49.6473" stroke="#7C3AED" stroke-opacity="0.08"/>
<line x1="100.353553" y1="234.303" x2="0" y2="59.6473" stroke="#7C3AED" stroke-opacity="0.08"/>
<line x1="100.353553" y1="244.303" x2="0" y2="69.6473" stroke="#7C3AED" stroke-opacity="0.08"/>
<line x1="100.353553" y1="254.303" x2="0" y2="79.6473" stroke="#7C3AED" stroke-opacity="0.08"/>
<line x1="100.353553" y1="264.303" x2="0" y2="89.6473" stroke="#7C3AED" stroke-opacity="0.08"/>
<line x1="100.353553" y1="274.303" x2="0" y2="99.6473" stroke="#7C3AED" stroke-opacity="0.08"/>
<line x1="100.353553" y1="284.303" x2="0" y2="109.647" stroke="#7C3AED" stroke-opacity="0.08"/>
<line x1="100.353553" y1="294.303" x2="0" y2="119.647" stroke="#7C3AED" stroke-opacity="0.08"/>
<line x1="100.353553" y1="304.303" x2="0" y2="129.647" stroke="#7C3AED" stroke-opacity="0.08"/>
<line x1="100.353553" y1="314.303" x2="0" y2="139.647" stroke="#7C3AED" stroke-opacity="0.08"/>
<line x1="100.353553" y1="324.303" x2="0" y2="149.647" stroke="#7C3AED" stroke-opacity="0.08"/>
<line x1="100.353553" y1="334.303" x2="0" y2="159.647" stroke="#7C3AED" stroke-opacity="0.08"/>
<line x1="100.353553" y1="344.303" x2="0" y2="169.647" stroke="#7C3AED" stroke-opacity="0.08"/>
<line x1="100.353553" y1="354.303" x2="0" y2="179.647" stroke="#7C3AED" stroke-opacity="0.08"/>
<line x1="100.353553" y1="364.303" x2="0" y2="189.647" stroke="#7C3AED" stroke-opacity="0.08"/>
<line x1="100.353553" y1="374.303" x2="0" y2="199.647" stroke="#7C3AED" stroke-opacity="0.08"/>
<line x1="100.353553" y1="384.303" x2="0" y2="209.647" stroke="#7C3AED" stroke-opacity="0.08"/>
<line x1="100.353553" y1="394.303" x2="0" y2="219.647" stroke="#7C3AED" stroke-opacity="0.08"/>
<line x1="100.353553" y1="404.303" x2="0" y2="229.647" stroke="#7C3AED" stroke-opacity="0.08"/>
<line x1="100.353553" y1="414.303" x2="0" y2="239.647" stroke="#7C3AED" stroke-opacity="0.08"/>
<line x1="100.353553" y1="424.303" x2="0" y2="249.647" stroke="#7C3AED" stroke-opacity="0.08"/>
<line x1="100.353553" y1="434.303" x2="0" y2="259.647" stroke="#7C3AED" stroke-opacity="0.08"/>
<line x1="100.353553" y1="444.303" x2="0" y2="269.647" stroke="#7C3AED" stroke-opacity="0.08"/>
<line x1="100.353553" y1="454.303" x2="0" y2="279.647" stroke="#7C3AED" stroke-opacity="0.08"/>
<line x1="100.353553" y1="464.303" x2="0" y2="289.647" stroke="#7C3AED" stroke-opacity="0.08"/>
<line x1="100.353553" y1="474.303" x2="0" y2="299.647" stroke="#7C3AED" stroke-opacity="0.08"/>
<line x1="100.353553" y1="484.303" x2="0" y2="309.647" stroke="#7C3AED" stroke-opacity="0.08"/>
<line x1="100.353553" y1="494.303" x2="0" y2="319.647" stroke="#7C3AED" stroke-opacity="0.08"/>
<line x1="100.353553" y1="504.303" x2="0" y2="329.647" stroke="#7C3AED" stroke-opacity="0.08"/>
<line x1="100.353553" y1="514.303" x2="0" y2="339.647" stroke="#7C3AED" stroke-opacity="0.08"/>
<line x1="100.353553" y1="524.303" x2="0" y2="349.647" stroke="#7C3AED" stroke-opacity="0.08"/>
<line x1="100.353553" y1="534.303" x2="0" y2="359.647" stroke="#7C3AED" stroke-opacity="0.08"/>
<line x1="100.353553" y1="544.303" x2="0" y2="369.647" stroke="#7C3AED" stroke-opacity="0.08"/>
<line x1="100.353553" y1="554.303" x2="0" y2="379.647" stroke="#7C3AED" stroke-opacity="0.08"/>
<line x1="100.353553" y1="564.303" x2="0" y2="389.647" stroke="#7C3AED" stroke-opacity="0.08"/>
<line x1="100.353553" y1="574.303" x2="0" y2="399.647" stroke="#7C3AED" stroke-opacity="0.08"/>
<line x1="100.353553" y1="584.303" x2="0" y2="409.647" stroke="#7C3AED" stroke-opacity="0.08"/>
<line x1="100.353553" y1="594.303" x2="0" y2="419.647" stroke="#7C3AED" stroke-opacity="0.08"/>
<line x1="100.353553" y1="604.303" x2="0" y2="429.647" stroke="#7C3AED" stroke-opacity="0.08"/>
<line x1="100.353553" y1="614.303" x2="0" y2="439.647" stroke="#7C3AED" stroke-opacity="0.08"/>
<line x1="100.353553" y1="624.303" x2="0" y2="449.647" stroke="#7C3AED" stroke-opacity="0.08"/>
<line x1="100.353553" y1="634.303" x2="0" y2="459.647" stroke="#7C3AED" stroke-opacity="0.08"/>
<line x1="100.353553" y1="644.303" x2="0" y2="469.647" stroke="#7C3AED" stroke-opacity="0.08"/>
<line x1="100.353553" y1="654.303" x2="0" y2="479.647" stroke="#7C3AED" stroke-opacity="0.08"/>
<line x1="100.353553" y1="664.303" x2="0" y2="489.647" stroke="#7C3AED" stroke-opacity="0.08"/>
<line x1="100.353553" y1="674.303" x2="0" y2="499.647" stroke="#7C3AED" stroke-opacity="0.08"/>
<line x1="100.353553" y1="684.303" x2="0" y2="509.647" stroke="#7C3AED" stroke-opacity="0.08"/>
<line x1="100.353553" y1="694.303" x2="0" y2="519.647" stroke="#7C3AED" stroke-opacity="0.08"/>
<line x1="100.353553" y1="704.303" x2="0" y2="529.647" stroke="#7C3AED" stroke-opacity="0.08"/>
<line x1="100.353553" y1="714.303" x2="0" y2="539.647" stroke="#7C3AED" stroke-opacity="0.08"/>
<line x1="100.353553" y1="724.303" x2="0" y2="549.647" stroke="#7C3AED" stroke-opacity="0.08"/>
<line x1="100.353553" y1="734.303" x2="0" y2="559.647" stroke="#7C3AED" stroke-opacity="0.08"/>
<line x1="100.353553" y1="744.303" x2="0" y2="569.647" stroke="#7C3AED" stroke-opacity="0.08"/>
<line x1="100.353553" y1="754.303" x2="0" y2="579.647" stroke="#7C3AED" stroke-opacity="0.08"/>
<line x1="100.353553" y1="764.303" x2="0" y2="589.647" stroke="#7C3AED" stroke-opacity="0.08"/>
<line x1="100.353553" y1="774.303" x2="0" y2="599.647" stroke="#7C3AED" stroke-opacity="0.08"/>
<line x1="100.353553" y1="784.303" x2="0" y2="609.647" stroke="#7C3AED" stroke-opacity="0.08"/>
<line x1="100.353553" y1="794.303" x2="0" y2="619.647" stroke="#7C3AED" stroke-opacity="0.08"/>
<line x1="100.353553" y1="804.303" x2="0" y2="629.647" stroke="#7C3AED" stroke-opacity="0.08"/>
<line x1="100.353553" y1="814.303" x2="0" y2="639.647" stroke="#7C3AED" stroke-opacity="0.08"/>
<line x1="100.353553" y1="824.303" x2="0" y2="649.647" stroke="#7C3AED" stroke-opacity="0.08"/>
<line x1="100.353553" y1="834.303" x2="0" y2="659.647" stroke="#7C3AED" stroke-opacity="0.08"/>
<line x1="100.353553" y1="844.303" x2="0" y2="669.647" stroke="#7C3AED" stroke-opacity="0.08"/>
<line x1="100.353553" y1="854.303" x2="0" y2="679.647" stroke="#7C3AED" stroke-opacity="0.08"/>
<line x1="100.353553" y1="864.303" x2="0" y2="689.647" stroke="#7C3AED" stroke-opacity="0.08"/>
<line x1="100.353553" y1="874.303" x2="0" y2="699.647" stroke="#7C3AED" stroke-opacity="0.08"/>
<line x1="100.353553" y1="884.303" x2="0" y2="709.647" stroke="#7C3AED" stroke-opacity="0.08"/>
<line x1="100.353553" y1="894.303" x2="0" y2="719.647" stroke="#7C3AED" stroke-opacity="0.08"/>
<line x1="100.353553" y1="900" x2="0" y2="725.647" stroke="#7C3AED" stroke-opacity="0.08"/>
</g>
<defs>
<clipPath id="clip0">
<rect width="100" height="900" fill="white"/>
</clipPath>
</defs>
</svg>
