<svg viewBox="0 0 553 179" fill="none" xmlns="http://www.w3.org/2000/svg">
<path d="M51.1766 133V122.68L61.7366 119.08L59.2166 123.04V58.72L62.8166 62.92L51.1766 59.08V48.76L80.9366 48.16H91.3766C101.297 48.16 108.777 50.24 113.817 54.4C118.857 58.48 121.377 64.36 121.377 72.04C121.377 78.84 119.297 84.52 115.137 89.08C111.057 93.56 104.497 96.36 95.4566 97.48L95.5766 95.08C98.6966 95.08 101.257 95.48 103.257 96.28C105.337 97.08 107.017 98.2 108.297 99.64C109.657 101 110.857 102.68 111.897 104.68L121.137 122.2L115.377 118.48L126.777 122.68V133H104.697L93.8966 110.2C92.6166 107.24 91.4966 105 90.5366 103.48C89.6566 101.96 88.6166 100.96 87.4166 100.48C86.2166 100 84.4166 99.8 82.0166 99.88L76.7366 100L80.0966 97.12V123.04L77.4566 119.08L88.6166 122.68V133H51.1766ZM80.0966 90.76L76.7366 85.6H85.8566C90.6566 85.6 94.2166 84.6 96.5366 82.6C98.9366 80.52 100.137 77.48 100.137 73.48C100.137 70.2 99.2166 67.64 97.3766 65.8C95.5366 63.88 92.6566 62.92 88.7366 62.92H76.7366L80.0966 59.8V90.76ZM159.089 134.56C153.089 134.56 147.809 133.36 143.249 130.96C138.689 128.48 135.169 124.84 132.689 120.04C130.209 115.16 128.969 109.16 128.969 102.04C128.969 94.68 130.289 88.4 132.929 83.2C135.569 78 139.329 74 144.209 71.2C149.089 68.4 154.889 67 161.609 67C168.089 67 173.369 68.24 177.449 70.72C181.529 73.2 184.489 76.64 186.329 81.04C188.249 85.36 189.209 90.24 189.209 95.68C189.209 97.2 189.129 98.76 188.969 100.36C188.889 101.96 188.649 103.6 188.249 105.28H145.649V94.12H171.089L168.209 96.16C168.289 93.04 168.089 90.4 167.609 88.24C167.129 86 166.249 84.32 164.969 83.2C163.769 82 162.089 81.4 159.929 81.4C157.289 81.4 155.249 82.24 153.809 83.92C152.369 85.52 151.329 87.64 150.689 90.28C150.129 92.92 149.849 95.8 149.849 98.92C149.849 102.76 150.249 106.24 151.049 109.36C151.849 112.48 153.289 115 155.369 116.92C157.449 118.76 160.329 119.68 164.009 119.68C166.489 119.68 169.209 119.24 172.169 118.36C175.209 117.4 178.369 116.04 181.649 114.28L188.369 124.84C183.569 128.12 178.689 130.56 173.729 132.16C168.769 133.76 163.889 134.56 159.089 134.56ZM221.226 121.36L219.906 119.68L228.546 122.68V133H193.506V122.68L202.146 119.68L200.826 121.36V52.12L202.026 53.32L193.506 50.56V40.36L221.226 39.16V121.36ZM289.569 122.92L286.809 118.84L296.889 122.68V133L273.609 134.08L271.089 122.68L272.289 123.04C269.409 126.88 266.129 129.76 262.449 131.68C258.849 133.6 255.009 134.56 250.929 134.56C245.409 134.56 240.929 132.84 237.489 129.4C234.129 125.88 232.449 121.08 232.449 115C232.449 110.52 233.409 106.92 235.329 104.2C237.329 101.4 240.249 99.36 244.089 98.08C247.929 96.8 252.729 96.16 258.489 96.16H270.249L269.169 97.36V91.24C269.169 87.88 268.369 85.48 266.769 84.04C265.249 82.52 262.889 81.76 259.689 81.76C258.249 81.76 256.649 81.88 254.889 82.12C253.209 82.36 251.409 82.76 249.489 83.32L251.289 81.28L249.489 90.52H237.009L236.049 71.68C241.889 70.08 247.209 68.92 252.009 68.2C256.889 67.4 261.329 67 265.329 67C273.329 67 279.369 68.68 283.449 72.04C287.529 75.32 289.569 80.48 289.569 87.52V122.92ZM252.849 112.72C252.849 115.28 253.449 117.2 254.649 118.48C255.849 119.68 257.369 120.28 259.209 120.28C260.889 120.28 262.649 119.8 264.489 118.84C266.409 117.88 268.209 116.52 269.889 114.76L269.169 117.52V104.68L270.369 106H261.849C258.489 106 256.129 106.52 254.769 107.56C253.489 108.6 252.849 110.32 252.849 112.72ZM325.132 134.56C319.052 134.56 314.452 132.76 311.332 129.16C308.292 125.48 306.772 120.04 306.772 112.84V79.36L309.292 81.88H298.132V71.2L309.532 67.72L306.772 71.2V54.52L327.172 50.8V71.2L325.132 68.56H343.252L342.892 81.88H325.132L327.172 79.36V110.08C327.172 113.44 327.692 115.88 328.732 117.4C329.772 118.92 331.372 119.68 333.532 119.68C334.732 119.68 336.052 119.52 337.492 119.2C339.012 118.8 340.692 118.28 342.532 117.64L346.252 128.56C338.972 132.56 331.932 134.56 325.132 134.56ZM377.945 121.36L376.625 119.68L385.265 122.68V133H350.225V122.68L358.865 119.68L357.545 121.36V80.92L358.745 82.12L350.225 79.24V69.04L377.945 68.08V121.36ZM367.385 60.52C363.945 60.52 361.145 59.56 358.985 57.64C356.905 55.64 355.865 52.8 355.865 49.12C355.865 45.28 356.945 42.44 359.105 40.6C361.345 38.68 364.145 37.72 367.505 37.72C370.785 37.72 373.505 38.64 375.665 40.48C377.825 42.32 378.905 45.2 378.905 49.12C378.905 52.88 377.785 55.72 375.545 57.64C373.385 59.56 370.665 60.52 367.385 60.52ZM419.36 134.56C413.68 134.56 408.52 133.28 403.88 130.72C399.32 128.08 395.72 124.28 393.08 119.32C390.44 114.36 389.12 108.32 389.12 101.2C389.12 94.64 390.08 89.2 392 84.88C394 80.48 396.6 76.96 399.8 74.32C403.08 71.68 406.68 69.8 410.6 68.68C414.6 67.56 418.64 67 422.72 67C426.96 67 431.08 67.52 435.08 68.56C439.16 69.52 442.36 70.52 444.68 71.56L444.2 90.4H431.36L429.44 81.28L431 82.36C430.12 82.04 428.96 81.8 427.52 81.64C426.08 81.4 424.68 81.28 423.32 81.28C420.2 81.28 417.68 82.08 415.76 83.68C413.84 85.2 412.44 87.36 411.56 90.16C410.76 92.96 410.36 96.28 410.36 100.12C410.36 104.44 410.92 108.08 412.04 111.04C413.16 113.92 414.76 116.08 416.84 117.52C418.92 118.96 421.32 119.68 424.04 119.68C426.44 119.68 429 119.2 431.72 118.24C434.52 117.28 437.52 115.84 440.72 113.92L447.32 124.24C442.76 127.76 438.12 130.36 433.4 132.04C428.76 133.72 424.08 134.56 419.36 134.56ZM477.632 121.36L476.312 119.68L484.952 122.68V133H449.912V122.68L458.552 119.68L457.232 121.36V52.12L458.432 53.32L449.912 50.56V40.36L477.632 39.16V121.36ZM519.207 134.56C513.207 134.56 507.927 133.36 503.367 130.96C498.807 128.48 495.287 124.84 492.807 120.04C490.327 115.16 489.087 109.16 489.087 102.04C489.087 94.68 490.407 88.4 493.047 83.2C495.687 78 499.447 74 504.327 71.2C509.207 68.4 515.007 67 521.727 67C528.207 67 533.487 68.24 537.567 70.72C541.647 73.2 544.607 76.64 546.447 81.04C548.367 85.36 549.327 90.24 549.327 95.68C549.327 97.2 549.247 98.76 549.087 100.36C549.007 101.96 548.767 103.6 548.367 105.28H505.767V94.12H531.207L528.327 96.16C528.407 93.04 528.207 90.4 527.727 88.24C527.247 86 526.367 84.32 525.087 83.2C523.887 82 522.207 81.4 520.047 81.4C517.407 81.4 515.367 82.24 513.927 83.92C512.487 85.52 511.447 87.64 510.807 90.28C510.247 92.92 509.967 95.8 509.967 98.92C509.967 102.76 510.367 106.24 511.167 109.36C511.967 112.48 513.407 115 515.487 116.92C517.567 118.76 520.447 119.68 524.127 119.68C526.607 119.68 529.327 119.24 532.287 118.36C535.327 117.4 538.487 116.04 541.767 114.28L548.487 124.84C543.687 128.12 538.807 130.56 533.847 132.16C528.887 133.76 524.007 134.56 519.207 134.56Z" fill="#4A4A4A"/>
<path d="M367.137 63C360.444 63 355 56.9439 355 49.5C355 42.0561 360.445 36 367.137 36C373.829 36 379.274 42.0559 379.274 49.5C379.274 56.9441 373.829 63 367.137 63Z" fill="#28B6E4"/>
<g clip-path="url(#clip0_2_19)">
<path d="M119.438 159.583H40.9711C32.8187 159.583 32.8099 145.813 40.9711 145.813H119.438C127.591 145.813 127.599 159.583 119.438 159.583Z" fill="#808285"/>
<path d="M118.762 33.1867H40.9711C32.8187 33.1867 32.8099 19.4173 40.9711 19.4173H118.762C126.914 19.4173 126.923 33.1867 118.762 33.1867Z" fill="#808285"/>
<path d="M17.4006 132.871V45.7195C17.4006 36.6223 29.7399 36.6125 29.7399 45.7195V132.87C29.7399 141.968 17.4006 141.977 17.4006 132.871Z" fill="#808285"/>
<path d="M23.5701 52.604C10.5735 52.604 0 40.8047 0 26.3018C0 11.799 10.5735 0 23.5701 0C36.5667 0 47.1402 11.799 47.1402 26.3018C47.1406 40.8047 36.5667 52.604 23.5701 52.604Z" fill="#28C3E4"/>
<path d="M23.5701 179C10.5735 179 0 167.201 0 152.698C0 138.195 10.5735 126.396 23.5701 126.396C36.5667 126.396 47.1402 138.195 47.1402 152.698C47.1402 167.201 36.5667 179 23.5701 179Z" fill="#28C3E4"/>
<path d="M149.417 146H79.618V160H149.417C163.811 160 163.797 146 149.417 146Z" fill="#4A4A4A"/>
<path d="M118.762 19.4173H79.8665V33.1867H118.762C126.923 33.1867 126.914 19.4173 118.762 19.4173Z" fill="#4A4A4A"/>
<path d="M136.839 52.604C123.842 52.604 113.269 40.8047 113.269 26.3022C113.269 11.799 123.842 0 136.839 0C149.836 0 160.409 11.799 160.409 26.3018C160.409 40.8047 149.836 52.604 136.839 52.604Z" fill="#28B6E4"/>
</g>
<defs>
<clipPath id="clip0_2_19">
<rect width="160.409" height="179" fill="white"/>
</clipPath>
</defs>
</svg>
