<svg width="1800" height="478" viewBox="0 0 1800 478" fill="none" xmlns="http://www.w3.org/2000/svg">
<g clip-path="url(#clip0_44_15)">
<path opacity="0.85" d="M65.1818 170.403C101.181 170.403 130.364 141.22 130.364 105.221C130.364 69.2225 101.181 40.0396 65.1818 40.0396C29.1829 40.0396 0 69.2225 0 105.221C0 141.22 29.1829 170.403 65.1818 170.403Z" fill="url(#paint0_linear_44_15)"/>
<path opacity="0.75" d="M427.303 170.403C455.302 170.403 478 147.705 478 119.706C478 91.7071 455.302 69.0093 427.303 69.0093C399.304 69.0093 376.606 91.7071 376.606 119.706C376.606 147.705 399.304 170.403 427.303 170.403Z" fill="url(#paint1_linear_44_15)"/>
<path opacity="0.9" d="M398.333 438.373C438.332 438.373 470.757 405.947 470.757 365.949C470.757 325.95 438.332 293.524 398.333 293.524C358.334 293.524 325.909 325.95 325.909 365.949C325.909 405.947 358.334 438.373 398.333 438.373Z" fill="url(#paint2_linear_44_15)"/>
<path d="M239 358.706C306.998 358.706 362.121 303.583 362.121 235.585C362.121 167.587 306.998 112.464 239 112.464C171.002 112.464 115.879 167.587 115.879 235.585C115.879 303.583 171.002 358.706 239 358.706Z" fill="url(#paint3_linear_44_15)"/>
<path d="M239 235.585L65.1819 105.222Z" fill="black"/>
<path d="M239 235.585L65.1819 105.222" stroke="url(#paint4_linear_44_15)" stroke-opacity="0.75" stroke-width="54" stroke-linecap="round"/>
<path d="M239 235.585L427.303 119.706Z" fill="black"/>
<path d="M239 235.585L427.303 119.706" stroke="url(#paint5_linear_44_15)" stroke-opacity="0.75" stroke-width="54" stroke-linecap="round"/>
<path d="M239 235.585L398.333 365.949Z" fill="black"/>
<path d="M239 235.585L398.333 365.949" stroke="url(#paint6_linear_44_15)" stroke-opacity="0.75" stroke-width="54" stroke-linecap="round"/>
</g>
<path d="M549.091 317V130.818H626C639.939 130.818 651.97 133.333 662.091 138.364C672.273 143.333 680.121 150.485 685.636 159.818C691.152 169.091 693.909 180.091 693.909 192.818C693.909 205.727 691.091 216.697 685.455 225.727C679.818 234.697 671.818 241.545 661.455 246.273C651.091 250.939 638.818 253.273 624.636 253.273H576V217.818H616.273C623.061 217.818 628.727 216.939 633.273 215.182C637.879 213.364 641.364 210.636 643.727 207C646.091 203.303 647.273 198.576 647.273 192.818C647.273 187.061 646.091 182.303 643.727 178.545C641.364 174.727 637.879 171.879 633.273 170C628.667 168.061 623 167.091 616.273 167.091H594.091V317H549.091ZM653.909 231.909L700.273 317H651.182L605.727 231.909H653.909ZM781.114 319.636C766.508 319.636 753.902 316.758 743.295 311C732.75 305.182 724.629 296.909 718.932 286.182C713.295 275.394 710.477 262.576 710.477 247.727C710.477 233.303 713.326 220.697 719.023 209.909C724.72 199.061 732.75 190.636 743.114 184.636C753.477 178.576 765.689 175.545 779.75 175.545C789.689 175.545 798.78 177.091 807.023 180.182C815.265 183.273 822.386 187.848 828.386 193.909C834.386 199.97 839.053 207.455 842.386 216.364C845.72 225.212 847.386 235.364 847.386 246.818V257.909H726.023V232.091H806.023C805.962 227.364 804.841 223.152 802.659 219.455C800.477 215.758 797.477 212.879 793.659 210.818C789.902 208.697 785.568 207.636 780.659 207.636C775.689 207.636 771.235 208.758 767.295 211C763.356 213.182 760.235 216.182 757.932 220C755.629 223.758 754.417 228.03 754.295 232.818V259.091C754.295 264.788 755.417 269.788 757.659 274.091C759.902 278.333 763.083 281.636 767.205 284C771.326 286.364 776.235 287.545 781.932 287.545C785.871 287.545 789.447 287 792.659 285.909C795.871 284.818 798.629 283.212 800.932 281.091C803.235 278.97 804.962 276.364 806.114 273.273L846.932 274.455C845.235 283.606 841.508 291.576 835.75 298.364C830.053 305.091 822.568 310.333 813.295 314.091C804.023 317.788 793.295 319.636 781.114 319.636ZM914.545 130.818V317H870.091V130.818H914.545ZM982.205 319.364C973.295 319.364 965.386 317.879 958.477 314.909C951.629 311.879 946.205 307.333 942.205 301.273C938.265 295.152 936.295 287.485 936.295 278.273C936.295 270.515 937.659 263.97 940.386 258.636C943.114 253.303 946.871 248.97 951.659 245.636C956.447 242.303 961.962 239.788 968.205 238.091C974.447 236.333 981.114 235.152 988.205 234.545C996.144 233.818 1002.54 233.061 1007.39 232.273C1012.23 231.424 1015.75 230.242 1017.93 228.727C1020.17 227.152 1021.3 224.939 1021.3 222.091V221.636C1021.3 216.97 1019.69 213.364 1016.48 210.818C1013.27 208.273 1008.93 207 1003.48 207C997.598 207 992.871 208.273 989.295 210.818C985.72 213.364 983.447 216.879 982.477 221.364L941.477 219.909C942.689 211.424 945.811 203.848 950.841 197.182C955.932 190.455 962.902 185.182 971.75 181.364C980.659 177.485 991.356 175.545 1003.84 175.545C1012.75 175.545 1020.96 176.606 1028.48 178.727C1035.99 180.788 1042.54 183.818 1048.11 187.818C1053.69 191.758 1057.99 196.606 1061.02 202.364C1064.11 208.121 1065.66 214.697 1065.66 222.091V317H1023.84V297.545H1022.75C1020.27 302.273 1017.08 306.273 1013.2 309.545C1009.39 312.818 1004.87 315.273 999.659 316.909C994.508 318.545 988.689 319.364 982.205 319.364ZM995.932 290.273C1000.72 290.273 1005.02 289.303 1008.84 287.364C1012.72 285.424 1015.81 282.758 1018.11 279.364C1020.42 275.909 1021.57 271.909 1021.57 267.364V254.091C1020.3 254.758 1018.75 255.364 1016.93 255.909C1015.17 256.455 1013.23 256.97 1011.11 257.455C1008.99 257.939 1006.81 258.364 1004.57 258.727C1002.33 259.091 1000.17 259.424 998.114 259.727C993.932 260.394 990.356 261.424 987.386 262.818C984.477 264.212 982.235 266.03 980.659 268.273C979.144 270.455 978.386 273.061 978.386 276.091C978.386 280.697 980.023 284.212 983.295 286.636C986.629 289.061 990.841 290.273 995.932 290.273ZM1171.66 177.364V210.091H1083.57V177.364H1171.66ZM1102.02 143.909H1146.48V273.091C1146.48 275.818 1146.9 278.03 1147.75 279.727C1148.66 281.364 1149.96 282.545 1151.66 283.273C1153.36 283.939 1155.39 284.273 1157.75 284.273C1159.45 284.273 1161.23 284.121 1163.11 283.818C1165.05 283.455 1166.51 283.152 1167.48 282.909L1174.2 315C1172.08 315.606 1169.08 316.364 1165.2 317.273C1161.39 318.182 1156.81 318.758 1151.48 319C1141.05 319.485 1132.11 318.273 1124.66 315.364C1117.27 312.394 1111.6 307.788 1107.66 301.545C1103.78 295.303 1101.9 287.455 1102.02 278V143.909ZM1194.34 317V177.364H1238.8V317H1194.34ZM1216.61 161.091C1210.37 161.091 1205.01 159.03 1200.52 154.909C1196.04 150.727 1193.8 145.697 1193.8 139.818C1193.8 134 1196.04 129.03 1200.52 124.909C1205.01 120.727 1210.37 118.636 1216.61 118.636C1222.92 118.636 1228.28 120.727 1232.7 124.909C1237.19 129.03 1239.43 134 1239.43 139.818C1239.43 145.697 1237.19 150.727 1232.7 154.909C1228.28 159.03 1222.92 161.091 1216.61 161.091ZM1332.27 319.636C1317.55 319.636 1304.91 316.606 1294.36 310.545C1283.88 304.485 1275.82 296.061 1270.18 285.273C1264.55 274.424 1261.73 261.879 1261.73 247.636C1261.73 233.333 1264.55 220.788 1270.18 210C1275.88 199.152 1283.97 190.697 1294.45 184.636C1305 178.576 1317.58 175.545 1332.18 175.545C1345.09 175.545 1356.33 177.879 1365.91 182.545C1375.55 187.212 1383.06 193.818 1388.45 202.364C1393.91 210.848 1396.79 220.818 1397.09 232.273H1355.55C1354.7 225.121 1352.27 219.515 1348.27 215.455C1344.33 211.394 1339.18 209.364 1332.82 209.364C1327.67 209.364 1323.15 210.818 1319.27 213.727C1315.39 216.576 1312.36 220.818 1310.18 226.455C1308.06 232.03 1307 238.939 1307 247.182C1307 255.424 1308.06 262.394 1310.18 268.091C1312.36 273.727 1315.39 278 1319.27 280.909C1323.15 283.758 1327.67 285.182 1332.82 285.182C1336.94 285.182 1340.58 284.303 1343.73 282.545C1346.94 280.788 1349.58 278.212 1351.64 274.818C1353.7 271.364 1355 267.182 1355.55 262.273H1397.09C1396.67 273.788 1393.79 283.848 1388.45 292.455C1383.18 301.061 1375.76 307.758 1366.18 312.545C1356.67 317.273 1345.36 319.636 1332.27 319.636ZM1464.3 130.818V317H1419.84V130.818H1464.3ZM1557.86 319.636C1543.26 319.636 1530.65 316.758 1520.05 311C1509.5 305.182 1501.38 296.909 1495.68 286.182C1490.05 275.394 1487.23 262.576 1487.23 247.727C1487.23 233.303 1490.08 220.697 1495.77 209.909C1501.47 199.061 1509.5 190.636 1519.86 184.636C1530.23 178.576 1542.44 175.545 1556.5 175.545C1566.44 175.545 1575.53 177.091 1583.77 180.182C1592.02 183.273 1599.14 187.848 1605.14 193.909C1611.14 199.97 1615.8 207.455 1619.14 216.364C1622.47 225.212 1624.14 235.364 1624.14 246.818V257.909H1502.77V232.091H1582.77C1582.71 227.364 1581.59 223.152 1579.41 219.455C1577.23 215.758 1574.23 212.879 1570.41 210.818C1566.65 208.697 1562.32 207.636 1557.41 207.636C1552.44 207.636 1547.98 208.758 1544.05 211C1540.11 213.182 1536.98 216.182 1534.68 220C1532.38 223.758 1531.17 228.03 1531.05 232.818V259.091C1531.05 264.788 1532.17 269.788 1534.41 274.091C1536.65 278.333 1539.83 281.636 1543.95 284C1548.08 286.364 1552.98 287.545 1558.68 287.545C1562.62 287.545 1566.2 287 1569.41 285.909C1572.62 284.818 1575.38 283.212 1577.68 281.091C1579.98 278.97 1581.71 276.364 1582.86 273.273L1623.68 274.455C1621.98 283.606 1618.26 291.576 1612.5 298.364C1606.8 305.091 1599.32 310.333 1590.05 314.091C1580.77 317.788 1570.05 319.636 1557.86 319.636Z" fill="black"/>
<defs>
<linearGradient id="paint0_linear_44_15" x1="0" y1="40.0396" x2="13036.4" y2="13076.4" gradientUnits="userSpaceOnUse">
<stop stop-color="#5D54E8"/>
<stop offset="1" stop-color="#4038CD"/>
</linearGradient>
<linearGradient id="paint1_linear_44_15" x1="376.606" y1="69.0093" x2="10516" y2="10208.4" gradientUnits="userSpaceOnUse">
<stop stop-color="#5D54E8"/>
<stop offset="1" stop-color="#4038CD"/>
</linearGradient>
<linearGradient id="paint2_linear_44_15" x1="325.909" y1="293.524" x2="14810.8" y2="14778.4" gradientUnits="userSpaceOnUse">
<stop stop-color="#5D54E8"/>
<stop offset="1" stop-color="#4038CD"/>
</linearGradient>
<linearGradient id="paint3_linear_44_15" x1="115.879" y1="112.464" x2="24740.1" y2="24736.7" gradientUnits="userSpaceOnUse">
<stop stop-color="#5D54E8"/>
<stop offset="1" stop-color="#4038CD"/>
</linearGradient>
<linearGradient id="paint4_linear_44_15" x1="65.1819" y1="105.222" x2="12580.1" y2="16791.8" gradientUnits="userSpaceOnUse">
<stop stop-color="#5D54E8"/>
<stop offset="1" stop-color="#4038CD"/>
</linearGradient>
<linearGradient id="paint5_linear_44_15" x1="239" y1="119.706" x2="10583.5" y2="16929.6" gradientUnits="userSpaceOnUse">
<stop stop-color="#5D54E8"/>
<stop offset="1" stop-color="#4038CD"/>
</linearGradient>
<linearGradient id="paint6_linear_44_15" x1="239" y1="235.585" x2="13017.2" y2="15853.4" gradientUnits="userSpaceOnUse">
<stop stop-color="#5D54E8"/>
<stop offset="1" stop-color="#4038CD"/>
</linearGradient>
<clipPath id="clip0_44_15">
<rect width="478" height="478" fill="white"/>
</clipPath>
</defs>
</svg>
