<svg viewBox="0 0 178 178" fill="none" xmlns="http://www.w3.org/2000/svg">
<path d="M52.6 131V120.68L63.16 117.08L60.64 121.04V56.72L64.24 60.92L52.6 57.08V46.76L82.36 46.16H92.8C102.72 46.16 110.2 48.24 115.24 52.4C120.28 56.48 122.8 62.36 122.8 70.04C122.8 76.84 120.72 82.52 116.56 87.08C112.48 91.56 105.92 94.36 96.88 95.48L97 93.08C100.12 93.08 102.68 93.48 104.68 94.28C106.76 95.08 108.44 96.2 109.72 97.64C111.08 99 112.28 100.68 113.32 102.68L122.56 120.2L116.8 116.48L128.2 120.68V131H106.12L95.32 108.2C94.04 105.24 92.92 103 91.96 101.48C91.08 99.96 90.04 98.96 88.84 98.48C87.64 98 85.84 97.8 83.44 97.88L78.16 98L81.52 95.12V121.04L78.88 117.08L90.04 120.68V131H52.6ZM81.52 88.76L78.16 83.6H87.28C92.08 83.6 95.64 82.6 97.96 80.6C100.36 78.52 101.56 75.48 101.56 71.48C101.56 68.2 100.64 65.64 98.8 63.8C96.96 61.88 94.08 60.92 90.16 60.92H78.16L81.52 57.8V88.76Z" fill="#4A4A4A"/>
<g clip-path="url(#clip0_3_3)">
<path d="M144.999 132.128V45.4641C144.999 36.4177 158.691 36.408 158.691 45.4641V132.128C158.691 141.175 144.999 141.184 144.999 132.128Z" fill="#6D6E71"/>
<path d="M132.536 158.691H45.4641C36.4177 158.691 36.408 144.999 45.4641 144.999H132.536C141.583 144.999 141.592 158.691 132.536 158.691Z" fill="#808285"/>
<path d="M131.786 33.0013H45.4641C36.4177 33.0013 36.408 19.3088 45.4641 19.3088H131.786C140.832 19.3088 140.842 33.0013 131.786 33.0013Z" fill="#808285"/>
<path d="M19.3088 132.128V45.4641C19.3088 36.4177 33.0013 36.408 33.0013 45.4641V132.128C33.0013 141.175 19.3088 141.184 19.3088 132.128Z" fill="#808285"/>
<path d="M26.1549 52.3101C11.7331 52.3101 0 40.5767 0 26.1549C0 11.7331 11.7331 0 26.1549 0C40.5767 0 52.3098 11.7331 52.3098 26.1549C52.3101 40.5767 40.5767 52.3101 26.1549 52.3101Z" fill="#28C3E4"/>
<path d="M26.1549 178C11.7331 178 0 166.267 0 151.845C0 137.423 11.7331 125.69 26.1549 125.69C40.5767 125.69 52.3098 137.423 52.3098 151.845C52.3098 166.267 40.5767 178 26.1549 178Z" fill="#28C3E4"/>
<path d="M132.536 144.999H88.6249V158.691H132.536C141.592 158.691 141.583 144.999 132.536 144.999Z" fill="#6D6E71"/>
<path d="M131.786 19.3088H88.6249V33.0013H131.786C140.842 33.0013 140.832 19.3088 131.786 19.3088Z" fill="#6D6E71"/>
<path d="M151.845 52.3101C137.423 52.3101 125.69 40.5767 125.69 26.1552C125.69 11.7331 137.423 0 151.845 0C166.267 0 178 11.7331 178 26.1549C178 40.5767 166.267 52.3101 151.845 52.3101Z" fill="#28B6E4"/>
<path d="M151.845 178C137.423 178 125.69 166.267 125.69 151.845C125.69 137.423 137.423 125.69 151.845 125.69C166.267 125.69 178 137.423 178 151.845C178 166.267 166.267 178 151.845 178Z" fill="#28B6E4"/>
</g>
<defs>
<clipPath id="clip0_3_3">
<rect width="178" height="178" fill="white"/>
</clipPath>
</defs>
</svg>
